<svg xmlns="http://www.w3.org/2000/svg" viewBox="0 0 225.53 119.57"><defs><style>.cls-1{fill:#4253a0;}.cls-2{fill:#1e1612;}.cls-3{fill:#0085c8;}.cls-4{fill:#fdea00;}.cls-5{fill:#1a1c14;}.cls-6{fill:#1d1d1b;}.cls-7{fill:#fff;}</style></defs><title>Asset 3</title><g id="Layer_2" data-name="Layer 2"><g id="Layer_1-2" data-name="Layer 1"><path class="cls-1" d="M2.58,91.34a37.33,37.33,0,0,0,11-26.08c.07-12-5.79-23.44-13.57-32.61.86,1,12.06.65,14.27,1A94.4,94.4,0,0,1,30.63,38C38.27,40.73,51,50.44,59,48.75c13.09-2.75-.47-23-8.12-25.18,1.66.47,11.22-6.71,13.25-7.72C80.46,7.74,98.41,3.58,116.41,1.41,131.08-.35,146.87-1.09,161.53,3,176.92,7.23,189.88,17,201.45,27.72c5.11,4.73,10.38,9.49,14.72,15,1,1.29,11.19,18,9.07,18.55l-8,2.18c2.71,1.7,5.8,4.87,4.06,7.55a6.11,6.11,0,0,1-1.9,1.67A153.45,153.45,0,0,0,199.89,88c-6,5.59-11.14,12.89-18,17.43-9.23,6.11-21.84,9.39-32.55,11.57-35,7.14-70.15-.74-98.13-23.37-1.41-1.15-9.82-9.91-11.11-9.58A24.93,24.93,0,0,0,53.61,75c2.11-2.77,5.22-8.12,1.42-10.63-7.11-4.69-23.92,15.91-29.15,19.44C19,88.47,10.87,91.83,2.58,91.34Z"/><path class="cls-2" d="M187.51,90.93A186.35,186.35,0,0,1,77.38,97.35a36.91,36.91,0,0,1-11-4.18,18.71,18.71,0,0,1-1.72-1.24,20.59,20.59,0,0,1-6.37-9.38,22.06,22.06,0,0,1-1.12-5.63,21.13,21.13,0,0,1,0-2.87,4.49,4.49,0,0,0,0-1.37A6.24,6.24,0,0,1,57.11,71a23.38,23.38,0,0,1,.21-2.51,3.29,3.29,0,0,0,0-1.21c-.07-.35-.33-.78-.72-.81a10.6,10.6,0,0,1,.08,2.19A9.83,9.83,0,0,1,56,71a19.53,19.53,0,0,1-2.43,4,24.93,24.93,0,0,1-13.52,9.06c1.29-.33,9.7,8.43,11.11,9.58,28,22.63,63.12,30.51,98.13,23.37,10.71-2.18,23.32-5.46,32.55-11.57,6.87-4.54,12-11.84,18-17.43l.11-.1C195.86,87.78,191.51,89.42,187.51,90.93Z"/><path class="cls-3" d="M169.12,96.77a186.59,186.59,0,0,1-91.74.58,36.91,36.91,0,0,1-11-4.18c-6.52-4.15-10-12.33-9.1-20a15.21,15.21,0,0,0-2.36,7.14C54.56,86.74,58.08,92.9,63,97s11.06,6.41,17.23,8.07c18.27,4.92,37.61,4.75,56.32,1.93C147.8,105.3,159.35,102.38,169.12,96.77Z"/><path class="cls-2" d="M191.53,19.18c-9-7.13-18.86-13.12-30-16.21-14.66-4.06-30.45-3.32-45.12-1.56-18,2.17-35.95,6.33-52.26,14.44-2,1-11.59,8.19-13.25,7.72,4.8,1.35,11.92,9.83,13.33,16.65a63.65,63.65,0,0,0,8.6-2.84c20-7.78,39.31-17.83,60.4-21.64C152.56,12.25,172.43,14.24,191.53,19.18Z"/><path class="cls-3" d="M180.77,13.27C152.67-.59,119.71.19,90.49,9.31c-7.65,2.39-14.11,4.18-18.7,11A24.54,24.54,0,0,0,68,39.15c1.64-.54,3.27-1.14,4.88-1.77,20-7.78,39.31-17.83,60.4-21.64,18.77-3.39,38-1.6,56.64,3A43.24,43.24,0,0,0,180.77,13.27Z"/><path class="cls-4" d="M163.42,74.54c1,4.42-10.09,8.8-13,9.71-7.49,2.3-14.69-2.29-18.33-9.1-3.94-7.36-2.11-25.52,10.26-18.72,11.17,6.15,19.56,11.39,19.56,11.39S163.42,74.53,163.42,74.54Z"/><path class="cls-5" d="M163.42,74.54s-1.55-6.72-1.55-6.72-3.08-1.92-8-4.8A129.37,129.37,0,0,1,140.46,58a11.19,11.19,0,0,0,5.43,7.13,21.73,21.73,0,0,1-6.34.15,7,7,0,0,0,6.13,3.24,25.09,25.09,0,0,1-6.4,3,23.15,23.15,0,0,0,7.5,1.77,9,9,0,0,1-6.19,2.64,14.93,14.93,0,0,0,7.29,1.54,8.43,8.43,0,0,1-3.8,2.89,8.47,8.47,0,0,0,5,1.55l-3.25.84a13,13,0,0,0,3.4,1.84c.38-.08.76-.16,1.14-.28C153.33,83.34,164.45,79,163.42,74.54Z"/><circle class="cls-6" cx="195.74" cy="42.87" r="6.5"/><circle class="cls-7" cx="193.4" cy="41.87" r="2.33"/><path class="cls-2" d="M151.47,35a205.11,205.11,0,0,1,47.27-6.62c-9.15-3.5-19.22-3.69-29-3-33.84,2.41-66,14.79-99.07,22.58a30.13,30.13,0,0,1-11.59.8l-.07,0c-8,1.69-20.74-8-28.39-10.74a94.4,94.4,0,0,0-16.36-4.35c-2.21-.36-13.41,0-14.27-1,7.78,9.17,13.64,20.59,13.57,32.61a37.33,37.33,0,0,1-11,26.08c8.29.49,16.41-2.87,23.3-7.52,5.23-3.53,22-24.13,29.15-19.44a3.75,3.75,0,0,1,1.58,2c4.9-1.81,10.41-1.7,15.7-1.73,15.7-.09,32.25-2.2,44.81-11.61,2.92-2.19,5.55-4.72,8.47-6.9C133.16,40.48,142.32,37.36,151.47,35Z"/><path class="cls-4" d="M42.21,56.51C33,52.16,23.46,47.74,13.28,47.33a22.34,22.34,0,0,0-3.74.15,42.53,42.53,0,0,1,4,17.78,36.66,36.66,0,0,1-1.71,10.8C22.7,71.17,32.65,63.76,42.21,56.51Z"/></g></g></svg>