<svg xmlns="http://www.w3.org/2000/svg" viewBox="0 0 246.64 165.32"><defs><style>.cls-1{fill:#e9eff9;}.cls-2{fill:#1d1d1b;}.cls-3{fill:#fff;}.cls-4{fill:#fdea00;}.cls-5{fill:#16130e;}</style></defs><title>Asset 2</title><g id="Layer_2" data-name="Layer 2"><g id="Layer_1-2" data-name="Layer 1"><path class="cls-1" d="M18.14,77.06s28.5-66.5,108-75,120.5,12,120.5,12-111.5-17.5-145.5,16.5c0,0,27.5,1.5,38,11s14.5,34.5,14,40l-15.84,15,28-6.66s13.69,18-2.82,44l-30.09-14s-6.42,15.33,16.25,32.66-16.67,16.67-42,0-24.22-4.66-24.11,2c0,0-29.63,4-40.09-19.33,0,0-18.14-2-24.3-28,0,0-10.24-12-17.4-14.83a1.2,1.2,0,0,1-.07-2.18l6-3L2.76,81.42a1.21,1.21,0,0,1,1.08-1.87A36,36,0,0,0,18.14,77.06Z"/><circle class="cls-2" cx="30.97" cy="78.04" r="6.5"/><path class="cls-3" d="M26.3,77a2.34,2.34,0,1,0,2.34-2.34A2.34,2.34,0,0,0,26.3,77Z"/><path class="cls-4" d="M137.3,96.56l15.84-15c.5-5.5-3.5-30.5-14-40s-38-11-38-11S139.66,55.6,137.3,96.56Z"/><path class="cls-4" d="M137.3,96.56s2.84,9.17-4.91,23.34l30.09,14c16.51-26,2.82-44,2.82-44Z"/><path class="cls-5" d="M61.54,26.18A136.28,136.28,0,0,0,46.37,38.73c-4.49,20.13-10.59,58.2-3.93,96.5,10.46,23.33,40.09,19.33,40.09,19.33-.08-5-.73-13,9.69-9.64C81.27,128.91,44.12,69.65,61.54,26.18Z"/><path class="cls-5" d="M77.14,26.18s-2.85,46.15,15.08,76.26,47,44.53,55.46,62.83h0c8.63-.48,11.5-4.65,1-12.71-12.34-9.43-16.06-18.27-16.88-24.37a134.58,134.58,0,0,1-8.44-19.13c-10.18-28-26.18-48.5-22.18-78.5C101.14,30.56,92.74,26.18,77.14,26.18Z"/><path class="cls-3" d="M246.64,14.06s-41-20.5-120.5-12C98.93,5,77.7,14.67,61.54,26.18c27.9-1.89,39.6,4.38,39.6,4.38C135.14-3.44,246.64,14.06,246.64,14.06Z"/><path class="cls-4" d="M47.3,93.23,65.68,72.55a3,3,0,0,1,5.06.88c2.12,5.42,4.13,15.44-3.44,26.09a7.05,7.05,0,0,1-7.89,2.59L47.3,98.23Z"/><path class="cls-1" d="M165.64,128.29c.27-.56.55-1.11.8-1.66l-21.31-8.07Z"/><path class="cls-1" d="M168.68,120.77q.36-1.12.63-2.22l-27.25-7.89Z"/><path class="cls-1" d="M170.37,112.83c.08-.7.14-1.39.18-2.06l-25.29-3.21Z"/><path class="cls-1" d="M170.4,104.39c-.08-.7-.17-1.39-.29-2l-25,.28Z"/><path class="cls-1" d="M168.8,97.07c-.22-.65-.44-1.25-.67-1.81l-22.74,4Z"/></g></g></svg>
