<svg xmlns="http://www.w3.org/2000/svg" viewBox="0 0 209.82 117.34"><defs><style>.cls-1{fill:#fdea00;}.cls-2{fill:#f4c300;}.cls-3{fill:#1d1d1b;}.cls-4{fill:#fff;}.cls-5{fill:#faf2a7;}</style></defs><title>Asset 1</title><g id="Layer_2" data-name="Layer 2"><g id="Layer_1-2" data-name="Layer 1"><path class="cls-1" d="M206.73,69.17c-6.22-1.71-12.74-4.08-17.56-8.54-6.29-5.83-5.59-11.88-6.46-19.67-.33-3-1.7-6.17-4.46-7.35-1.68-.72-3.76-.67-5-2a6.78,6.78,0,0,1-1.37-2.84A45.36,45.36,0,0,0,144.21.25a5,5,0,0,1,1.92,3c-14.3-3.26-29.87-5.45-43.19.71l2.22.83C92.83,9.2,77.71,12.6,68,21.93l2.82-.76A91.16,91.16,0,0,1,54.68,41.66a5.77,5.77,0,0,1,5.9.85c6.1,5.15-1.09,13-6.6,14.82-12.09,4.1-11.67-6.71-15.82-14.2C31,30.28,16.64,25.1,2.76,23.4,9.56,36.29,8.7,52.76,17.81,64.13a24.56,24.56,0,0,0-10,12.11C4.27,85.4,6.22,96.69,0,104.25c1.62-2,9.48-3.66,12.21-5.3,7.53-4.54,12.73-11,19.59-16.33,7.72-6.05,21.27-12.2,26.05.89-2.55-.46-4.61,1.91-6.35,3.83s-4.65,3.73-6.71,2.15c2.61,2,2.73,6.91,4.8,9.57,2.19,2.83,16.3,11.53,19.94,8.33a8.16,8.16,0,0,1-5,2c17.27,11.21,41.46,10.48,58-1.74.31-.23,6.17,1.87,7,2a35.2,35.2,0,0,0,8.94.15A60.54,60.54,0,0,0,152.81,106a88.46,88.46,0,0,0,21.87-11.87c6.5-4.82,13.1-10.9,21.71-11,4.35-.07,9.11,1.44,12.79-.87a15.16,15.16,0,0,0-7.93-5.09,11.63,11.63,0,0,0,8.43-6.39,1.3,1.3,0,0,0-1.77-1.72A1.64,1.64,0,0,1,206.73,69.17Z"/><path class="cls-2" d="M166.52,22.47a42.24,42.24,0,0,1,3.72,2.06,45.57,45.57,0,0,0-26-24.28,5,5,0,0,1,1.92,3c-14.3-3.26-29.87-5.45-43.19.71l2.22.83C92.83,9.2,77.71,12.6,68,21.93l2.82-.76A91.16,91.16,0,0,1,54.68,41.66,6,6,0,0,1,62.84,48c4.45-3.11,8.84-6.31,13-9.84,3.88-3.31,7.53-6.91,11.56-10a69.88,69.88,0,0,1,38.68-14.21A81.08,81.08,0,0,1,166.52,22.47Z"/><path class="cls-2" d="M7.76,76.24C4.27,85.4,6.22,96.69,0,104.25c1.62-2,9.48-3.66,12.21-5.3,7.53-4.54,12.73-11,19.59-16.33a40.16,40.16,0,0,1,7-4.39c-2.1-2.89-1.89-7.45-1.29-11.23s1.27-7.5,3.27-10.66c.57-.9,1.25-1.75,1.89-2.61-1.62-3.07-2.56-7.18-4.46-10.6C31,30.28,16.64,25.1,2.76,23.4,9.56,36.29,8.7,52.76,17.81,64.13A24.56,24.56,0,0,0,7.76,76.24Z"/><path class="cls-2" d="M121.36,108.47c-7.83-1-15.81.28-23.66-.57-15.36-1.64-28.88-11.28-39-22.92a20.29,20.29,0,0,0-1.41-1.52c-2.28,0-4.16,2.11-5.76,3.88-1.73,1.93-4.65,3.73-6.71,2.15,2.61,2,2.73,6.91,4.8,9.57,2.19,2.83,16.3,11.53,19.94,8.33a8.16,8.16,0,0,1-5,2C81.36,120.35,104.84,119.9,121.36,108.47Z"/><path class="cls-3" d="M173.65,45.37a7.08,7.08,0,1,1-7.08-7.07A7.08,7.08,0,0,1,173.65,45.37Z"/><path class="cls-4" d="M171.65,44.28a2.54,2.54,0,1,1-2.54-2.54A2.53,2.53,0,0,1,171.65,44.28Z"/><path class="cls-2" d="M126.72,79.44l.73,0a21.9,21.9,0,0,0-3.66,7.16,18.17,18.17,0,0,0,5.88-2.91,35.4,35.4,0,0,0,1,8.27l3.57-4.25A37.09,37.09,0,0,1,146.58,78c-.15-1.5-1.49-2.62-2.43-3.71a14,14,0,0,1-3-11.71c.65-3.2-6.28-3.71-8.56-4.59a57.26,57.26,0,0,1-11.11-5.73,17.42,17.42,0,0,0,3.86,13.29L119.76,67A16.06,16.06,0,0,0,126,74.3a11.7,11.7,0,0,0-5,4.78Z"/><path class="cls-5" d="M152.37,27.05c.31,3.56-3.3,6.65-6.94,7.07s-7.47-1.13-11-2.47c-7.6-2.83-16.19-1.28-23.92.59A104.86,104.86,0,0,0,76.08,47.57c10.56-7.23,21.45-14.2,33.3-19.15C120,24,136.34,17,147.89,21.73a7,7,0,0,1,4.41,4.86C152.33,26.75,152.35,26.9,152.37,27.05Z"/></g></g></svg>